<svg width="30" height="30" viewBox="0 0 392 392" fill="none" xmlns="http://www.w3.org/2000/svg">
<rect width="392" height="392" fill="white"/>
<g filter="url(#filter0_d_0_1)">
<rect x="4" width="384" height="384" rx="20" fill="#E0DEDE"/>
<rect x="4" width="384" height="384" rx="20" fill="#FAF7F7"/>
<path d="M4 20C4 8.9543 12.9543 0 24 0H368C379.046 0 388 8.95431 388 20V142H4V20Z" fill="#F9E478"/>
<line x1="4" y1="167.5" x2="388" y2="167.5" stroke="black" stroke-dasharray="20 20"/>
<line x1="4" y1="214.5" x2="388" y2="214.5" stroke="black"/>
<line x1="4" y1="266.5" x2="388" y2="266.5" stroke="black"/>
<line x1="4" y1="321.5" x2="388" y2="321.5" stroke="black"/>
<path d="M139.379 319.496C136.207 323.676 130.326 324.392 126.244 321.097L124.083 319.353C120.001 316.057 119.262 309.997 122.434 305.818L226.568 168.59L243.512 182.269L139.379 319.496Z" fill="#989090" stroke="#8F8B8B"/>
<path d="M226.771 170.248L263.917 134.329L242.337 181.896L226.771 170.248Z" fill="#E1C1A9" stroke="#DDD7D7"/>
<path d="M247.08 151.094L265.692 131.765L253.652 156.012L247.08 151.094Z" fill="#3E3B39" stroke="#DDD7D7"/>
</g>
<defs>
<filter id="filter0_d_0_1" x="0" y="0" width="392" height="392" filterUnits="userSpaceOnUse" color-interpolation-filters="sRGB">
<feFlood flood-opacity="0" result="BackgroundImageFix"/>
<feColorMatrix in="SourceAlpha" type="matrix" values="0 0 0 0 0 0 0 0 0 0 0 0 0 0 0 0 0 0 127 0" result="hardAlpha"/>
<feOffset dy="4"/>
<feGaussianBlur stdDeviation="2"/>
<feComposite in2="hardAlpha" operator="out"/>
<feColorMatrix type="matrix" values="0 0 0 0 0 0 0 0 0 0 0 0 0 0 0 0 0 0 0.25 0"/>
<feBlend mode="normal" in2="BackgroundImageFix" result="effect1_dropShadow_0_1"/>
<feBlend mode="normal" in="SourceGraphic" in2="effect1_dropShadow_0_1" result="shape"/>
</filter>
</defs>
</svg>
